<?xml version="1.0" encoding="UTF-8"?>
<svg width="100px" height="100px" viewBox="0 0 100 100" version="1.1" xmlns="http://www.w3.org/2000/svg" xmlns:xlink="http://www.w3.org/1999/xlink">
        <g  fill="#000000">
            <path d="M50,-2.49999999e-05 C43.09625,-2.49999999e-05 37.5,5.596475 37.5,12.499975 L37.5,37.499975 L12.5,37.499975 C5.5965,37.499975 0,43.096225 0,50.00005 C0,56.9038 5.5965,62.50005 12.5,62.50005 L37.5,62.50005 L37.5,87.50005 C37.5,94.40355 43.09625,100.00005 50,100.00005 C56.90375,100.00005 62.5,94.40355 62.5,87.50005 L62.5,62.50005 L87.5,62.50005 C94.4035,62.50005 100,56.9038 100,50.00005 C100,43.096225 94.4035,37.499975 87.5,37.499975 L62.5,37.499975 L62.5,12.499975 C62.5,5.596475 56.90375,-2.49999999e-05 50,-2.49999999e-05 Z" ></path>
        </g>
</svg>