<svg height='100px' width='100px'  fill="#000000" xmlns="http://www.w3.org/2000/svg" data-name="Layer 1" viewBox="0 0 32 32" x="0px" y="0px"><title>Paste, copy, interface, ui, Clipboard_2</title><path d="M26,32H18a3,3,0,0,1-3-3V17a3,3,0,0,1,3-3h8a3,3,0,0,1,3,3V29A3,3,0,0,1,26,32ZM18,16a1,1,0,0,0-1,1V29a1,1,0,0,0,1,1h8a1,1,0,0,0,1-1V17a1,1,0,0,0-1-1Z"></path><path d="M24,16a1,1,0,0,1-1-1V7a1,1,0,0,0-1-1H20a1,1,0,0,1,0-2h2a3,3,0,0,1,3,3v8A1,1,0,0,1,24,16Z"></path><path d="M16,30H6a3,3,0,0,1-3-3V7A3,3,0,0,1,6,4H8A1,1,0,0,1,8,6H6A1,1,0,0,0,5,7V27a1,1,0,0,0,1,1H16a1,1,0,0,1,0,2Z"></path><path d="M20,8H8A1,1,0,0,1,7,7V5a3,3,0,0,1,3-3h1.17a3,3,0,0,1,5.66,0H18a3,3,0,0,1,3,3V7A1,1,0,0,1,20,8ZM9,6H19V5a1,1,0,0,0-1-1H16a1,1,0,0,1-1-1,1,1,0,0,0-2,0,1,1,0,0,1-1,1H10A1,1,0,0,0,9,5Zm8-3h0Z"></path><path d="M24,20H20a1,1,0,0,1,0-2h4a1,1,0,0,1,0,2Z"></path><path d="M24,24H20a1,1,0,0,1,0-2h4a1,1,0,0,1,0,2Z"></path><path d="M22,28H20a1,1,0,0,1,0-2h2a1,1,0,0,1,0,2Z"></path></svg>