<svg height='100px' width='100px'  fill="#000000" xmlns:dc="http://purl.org/dc/elements/1.1/" xmlns:cc="http://creativecommons.org/ns#" xmlns:rdf="http://www.w3.org/1999/02/22-rdf-syntax-ns#" xmlns:svg="http://www.w3.org/2000/svg" xmlns="http://www.w3.org/2000/svg" xmlns:sodipodi="http://sodipodi.sourceforge.net/DTD/sodipodi-0.dtd" xmlns:inkscape="http://www.inkscape.org/namespaces/inkscape" viewBox="0 0 511.99998 511.99998" version="1.1" x="0px" y="0px"><g transform="translate(-91.214475,-152.15558)"><path style="opacity:1;fill:#000000;fill-opacity:1;fill-rule:nonzero;stroke:none;stroke-width:3;stroke-linecap:butt;stroke-linejoin:miter;stroke-miterlimit:4;stroke-dasharray:none;stroke-dashoffset:0;stroke-opacity:1" d="m 125.54417,547.03192 -4.13003,14.8546 -18.47199,66.42847 0.001,0.001 -5.156898,18.54317 c -2.2885,8.23024 2.494278,13.01303 10.724538,10.72454 l 18.54475,-5.15527 66.42832,-18.47203 14.85456,-4.13006 10e-4,-0.005 -3.13229,-3.13231 -76.52541,-76.52558 -3.13392,-3.13393 -0.004,0.004 -0.001,-10e-4 z m 19.81418,-19.8142 11.03985,11.03987 60.71516,60.71529 11.03985,11.03989 22.31095,-22.31101 259.19159,-259.19215 -82.79487,-82.79505 -259.19159,259.19215 -22.31094,22.31101 z m 302.41309,-302.41375 11.95997,11.95999 58.87491,58.87504 11.95998,11.96001 12.12493,-12.12495 30.5112,-30.51128 18.92477,-18.9248 c 6.71769,-6.7177 6.79198,-17.46112 0.16656,-24.08656 l -58.87492,-58.87505 c -6.62542,-6.62543 -17.36882,-6.55114 -24.08651,0.16656 l -18.92477,18.92482 -30.5112,30.51127 -12.12492,12.12495 z"></path></g></svg>