<svg height='100px' width='100px'  fill="#000000" xmlns="http://www.w3.org/2000/svg" xmlns:xlink="http://www.w3.org/1999/xlink" version="1.1" x="0px" y="0px" viewBox="0 0 100 100" style="enable-background:new 0 0 100 100;" xml:space="preserve"><g><path d="M50,5C25.1,5,5,25.1,5,50s20.1,45,45,45s45-20.1,45-45l0,0C95,25.1,74.9,5,50,5z M28.6,72.6c-0.1,0-0.2,0-0.3,0   c-0.5,0-0.9-0.4-0.9-1c0-0.1,0-0.2,0-0.3l3.1-9.3l7.4,7.4L28.6,72.6z M39.5,68.4l-7.9-7.9l27.3-27.3l7.9,7.9L39.5,68.4z M71.8,36.1   l-3.7,3.7l-7.9-7.9l3.7-3.7c1.1-1.1,2.9-1.1,4,0l3.9,3.9C72.9,33.2,72.9,35,71.8,36.1C71.8,36.1,71.8,36.1,71.8,36.1L71.8,36.1z"></path></g></svg>