<svg width="132" height="34" viewBox="0 0 132 34" xmlns="http://www.w3.org/2000/svg"><title>Group 39</title><g fill="none" fill-rule="evenodd"><g opacity=".9"><path d="M53.97 15.365h-5.712v-1.596h5.943v-3.675H43.113V24.5h11.046l.567-3.654h-6.468V19.04h5.712v-3.675zm7.882 9.135v-1.47c0-2.352.021-4.746-.147-6.552h.084c.168.567.567 2.037 2.205 8.022h5.964V10.094h-4.977v1.281c0 2.016.105 4.683.252 6.405h-.126c-.105-.441-.63-2.52-2.037-7.686h-6.174V24.5h4.956zm20.23 0l4.431-14.406h-5.502c-.378 1.659-.693 3.696-1.071 5.418a57.393 57.393 0 0 0-.819 4.662h-.126c-.21-1.638-.357-2.919-.714-4.704-.336-1.659-.651-3.717-.987-5.376h-5.607L75.635 24.5h6.447z" fill="#2DB6E3"/><path d="M88.384 24.5h5.271v-3.696l1.029-1.47 1.659 5.166h6.258l-4.242-8.694 4.095-5.712H96.28c-.672 1.365-1.575 3.339-2.625 5.355v-5.355h-5.271V24.5zm26.551-9.135h-5.712v-1.596h5.943v-3.675h-11.088V24.5h11.046l.567-3.654h-6.468V19.04h5.712v-3.675zm11.851 9.135v-4.725c0-.252.063-.504.126-.672l4.62-9.009h-5.565c-.42 1.47-1.029 3.591-1.617 5.544-.42-1.722-1.008-3.612-1.554-5.544h-6.027l4.452 8.946c.168.315.147.504.147.714V24.5h5.418z" fill="#FFF"/></g><g fill="#FFF"><path d="M14.632 32.649c-.777 0-1.38-.57-1.51-1.315l-.432-2.672c-.906-.263-1.812-.658-2.676-1.096l-2.2 1.577c-.605.438-1.469.395-1.986-.175l-2.073-2.105c-.517-.524-.605-1.4-.173-2.015l1.553-2.191a15.443 15.443 0 0 1-1.164-2.762l-2.676-.438C.562 19.325 0 18.667 0 17.923v-2.98c0-.79.562-1.402 1.295-1.534l2.633-.438c.259-.964.648-1.886 1.122-2.806L3.497 7.931c-.432-.614-.39-1.49.172-2.015L5.743 3.81c.516-.524 1.38-.614 1.985-.176l2.158 1.577c.863-.481 1.77-.876 2.72-1.182l.433-2.715C13.169.57 13.816 0 14.549 0h2.936c.779 0 1.381.57 1.511 1.315l.432 2.672a10.62 10.62 0 0 1 2.806 1.182l2.2-1.577c.606-.438 1.47-.395 1.987.176l2.072 2.104c.518.525.605 1.402.174 2.016l-1.554 2.191c.474.876.863 1.796 1.122 2.761l2.633.439c.733.132 1.295.79 1.295 1.533v2.981c0 .79-.562 1.401-1.295 1.534l-2.633.438a12.779 12.779 0 0 1-1.122 2.762l-4.836 4.953c-.864.481-1.77.876-2.72 1.138l-.432 2.673c-.176.833-.823 1.358-1.556 1.358h-2.937zm-4.444-6.003c.948.571 1.942.963 2.978 1.229.174.043.302.175.302.35l.474 2.936c.043.351.347.57.69.57h2.937c.346 0 .605-.262.69-.57l.474-2.935a.502.502 0 0 1 .302-.351c1.08-.263 2.073-.702 3.022-1.272a.463.463 0 0 1 .474 0l3.712-3.768c-.085-.133-.085-.306 0-.482a11.67 11.67 0 0 0 1.252-3.067c.043-.176.174-.306.346-.306l2.892-.481c.346-.044.562-.352.562-.702v-2.98c0-.352-.259-.614-.562-.7l-2.892-.483a.5.5 0 0 1-.346-.305c-.258-1.096-.69-2.105-1.252-3.068a.485.485 0 0 1 0-.481l1.727-2.454a.632.632 0 0 0-.086-.876l-2.073-2.105a.706.706 0 0 0-.863-.086L22.53 6.012c-.13.086-.302.086-.474 0-.95-.571-2.029-1.01-3.108-1.315-.173-.044-.3-.176-.3-.352l-.475-2.935c-.043-.351-.347-.57-.69-.57h-2.937c-.346 0-.605.262-.69.57l-.517 2.98a.504.504 0 0 1-.301.353c-1.08.305-2.074.7-3.022 1.314a.467.467 0 0 1-.475 0l-2.374-1.71a.61.61 0 0 0-.864.087L4.232 6.54a.735.735 0 0 0-.086.876L5.873 9.87c.085.132.085.306 0 .481-.562.964-.949 2.016-1.252 3.068-.043.175-.174.306-.347.306l-2.89.481c-.347.043-.563.352-.563.7v2.982c0 .351.258.614.562.7l2.936.525a.502.502 0 0 1 .347.306c.3 1.096.69 2.104 1.295 3.068a.485.485 0 0 1 0 .481l-1.684 2.41a.632.632 0 0 0 .085.877l2.073 2.104c.216.22.605.263.863.087l2.417-1.753a.56.56 0 0 1 .257-.089c.085 0 .13 0 .216.043zm5.913-3.549c-3.67 0-6.649-3.024-6.649-6.749 0-3.724 2.98-6.749 6.649-6.749s6.648 3.025 6.648 6.75c0 3.724-2.98 6.748-6.648 6.748zm0-12.621c-3.195 0-5.786 2.629-5.786 5.872 0 3.244 2.59 5.873 5.786 5.873 3.195 0 5.785-2.63 5.785-5.873 0-3.243-2.59-5.872-5.785-5.872z" fill-opacity=".7"/><path d="M16.513 9.325c3.8.199 6.717 3.488 6.515 7.346l-.122 2.328 8.687 9.794-.244 4.657-4.588-.24.122-2.329-2.293-.12.122-2.328-2.294-.12.122-2.329-2.294-.12.122-2.328-4.587-.24c-3.8-.2-6.717-3.489-6.515-7.347.202-3.857 3.447-6.823 7.247-6.624zm-.488 9.313c1.266.067 2.348-.922 2.416-2.208.067-1.285-.905-2.382-2.172-2.448-1.266-.067-2.348.922-2.416 2.208-.067 1.285.906 2.382 2.172 2.448z"/></g></g></svg>