<svg height='100px' width='100px'  fill="#000000" xmlns:x="http://ns.adobe.com/Extensibility/1.0/" xmlns:i="http://ns.adobe.com/AdobeIllustrator/10.0/" xmlns:graph="http://ns.adobe.com/Graphs/1.0/" xmlns="http://www.w3.org/2000/svg" xmlns:xlink="http://www.w3.org/1999/xlink" version="1.1" x="0px" y="0px" viewBox="0 0 100 100" style="enable-background:new 0 0 100 100;" xml:space="preserve"><g><g i:extraneous="self"><g><path d="M5273.1,2400.1v-2c0-2.8-5-4-9.7-4s-9.7,1.3-9.7,4v2c0,1.8,0.7,3.6,2,4.9l5,4.9c0.3,0.3,0.4,0.6,0.4,1v6.4     c0,0.4,0.2,0.7,0.6,0.8l2.9,0.9c0.5,0.1,1-0.2,1-0.8v-7.2c0-0.4,0.2-0.7,0.4-1l5.1-5C5272.4,2403.7,5273.1,2401.9,5273.1,2400.1z      M5263.4,2400c-4.8,0-7.4-1.3-7.5-1.8v0c0.1-0.5,2.7-1.8,7.5-1.8c4.8,0,7.3,1.3,7.5,1.8C5270.7,2398.7,5268.2,2400,5263.4,2400z"></path><path d="M5268.4,2410.3c-0.6,0-1,0.4-1,1c0,0.6,0.4,1,1,1h4.3c0.6,0,1-0.4,1-1c0-0.6-0.4-1-1-1H5268.4z"></path><path d="M5272.7,2413.7h-4.3c-0.6,0-1,0.4-1,1c0,0.6,0.4,1,1,1h4.3c0.6,0,1-0.4,1-1C5273.7,2414.1,5273.3,2413.7,5272.7,2413.7z"></path><path d="M5272.7,2417h-4.3c-0.6,0-1,0.4-1,1c0,0.6,0.4,1,1,1h4.3c0.6,0,1-0.4,1-1C5273.7,2417.5,5273.3,2417,5272.7,2417z"></path></g><g><path d="M93.5,42.7H64.6v-9.9c0-1.7-0.9-3.2-2.4-4C60.7,28,59,28.1,57.6,29L31.2,46.2c-1.3,0.8-2.1,2.3-2.1,3.8     c0,1.5,0.8,3,2.1,3.8L57.6,71c0.8,0.5,1.6,0.8,2.5,0.8c0.7,0,1.5-0.2,2.2-0.6c1.5-0.8,2.4-2.3,2.4-4v-9.9h28.8c2.2,0,4-1.8,4-4     v-6.5C97.5,44.5,95.7,42.7,93.5,42.7z"></path><path d="M45,80.4H17.3V19.6H45c4.1,0,7.4-3.3,7.4-7.4S49.1,4.7,45,4.7H9.9c-4.1,0-7.4,3.3-7.4,7.4v75.7c0,4.1,3.3,7.4,7.4,7.4H45     c4.1,0,7.4-3.3,7.4-7.4C52.4,83.7,49.1,80.4,45,80.4z"></path></g></g></g></svg>