<svg height='100px' width='100px'  fill="#000000" xmlns="http://www.w3.org/2000/svg" xmlns:xlink="http://www.w3.org/1999/xlink" xml:space="preserve" version="1.1" style="shape-rendering:geometricPrecision;text-rendering:geometricPrecision;image-rendering:optimizeQuality;" viewBox="0 0 368 368" x="0px" y="0px" fill-rule="evenodd" clip-rule="evenodd"><g><path class="fil0" d="M164 0l40 0c3,0 5,2 5,4l11 36c14,4 28,10 40,17l33 -18c2,-2 5,-1 7,1l28 28c2,2 2,5 1,7l-18 33c7,12 13,26 16,40l37 10c2,1 4,3 4,6l0 40c0,3 -2,5 -4,5l-37 11c-3,14 -9,28 -16,40l18 33c1,2 1,5 -1,7l-28 28c-2,2 -5,2 -7,1l-33 -18c-12,7 -26,13 -40,16l-11 37c0,2 -2,4 -5,4l-40 0c-3,0 -5,-2 -6,-4l-10 -37c-14,-3 -28,-9 -40,-16l-33 18c-2,1 -5,1 -7,-1l-28 -28c-2,-2 -3,-5 -1,-7l18 -33c-7,-12 -13,-26 -17,-40l-36 -11c-2,0 -4,-2 -4,-5l0 -40c0,-3 2,-5 4,-6l36 -10c4,-14 10,-28 17,-40l-18 -33c-2,-2 -1,-5 1,-7l28 -28c2,-2 5,-3 7,-1l33 18c12,-7 26,-13 40,-17l10 -36c1,-2 3,-4 6,-4zm20 93c50,0 91,41 91,91 0,50 -41,91 -91,91 -50,0 -91,-41 -91,-91 0,-50 41,-91 91,-91z"></path></g></svg>