<?xml version="1.0" encoding="UTF-8"?>
<svg width="100px" height="100px" viewBox="0 0 100 100" version="1.1" xmlns="http://www.w3.org/2000/svg" xmlns:xlink="http://www.w3.org/1999/xlink">
    <!-- Generator: Sketch 52.1 (67048) - http://www.bohemiancoding.com/sketch -->
    <title>Artboard</title>
    <desc>Created with Sketch.</desc>
    <g id="Artboard" stroke="none" stroke-width="1" fill="none" fill-rule="evenodd">
        <g id="hide" transform="translate(0.000000, 8.000000)" fill="#000000" fill-rule="nonzero">
            <path d="M13.3333333,84 L8.14814815,78.7964602 L86.6666667,0 L91.8518519,5.20353982 L13.3333333,84 Z M79.8148148,22.6725664 L76.8518519,25.6460177 C79.8148148,30.4778761 81.4814815,36.0530973 81.4814815,42 C81.4814815,51.6637168 77.037037,60.3982301 70.1851852,66.159292 C90,58.539823 100,42 100,42 C100,42 93.3333333,30.8495575 79.8148148,22.6725664 Z M23.1481481,58.3539823 C20.1851852,53.7079646 18.5185185,47.9469027 18.5185185,42 C18.5185185,32.3362832 22.962963,23.6017699 29.8148148,17.840708 C10,25.460177 0,42 0,42 C0,42 6.66666667,53.1504425 20.1851852,61.3274336 L23.1481481,58.3539823 Z M25.9259259,55.7522124 L39.0740741,42.5556637 C39.0740741,35.6535398 43.8537037,30.8476991 50.7407407,30.8476991 L63.8888889,17.6530088 C59.8148148,15.4229204 55.1851852,13.9361947 50.1851852,13.9361947 C34.8148148,13.9361947 22.4074074,26.3875221 22.4074074,41.8123009 C22.2222222,47.0176991 23.5185185,51.6637168 25.9259259,55.7522124 Z M74.0740741,28.2477876 L61.1111111,41.4424779 C61.1111111,48.3483186 56.3259259,53.1504425 49.4444444,53.1504425 L36.2962963,66.159292 C40.3703704,68.3893805 45,69.8761062 50,69.8761062 C65.3703704,69.8761062 77.7777778,57.4247788 77.7777778,42 C77.7777778,36.9823009 76.4814815,32.3362832 74.0740741,28.2477876 Z" id="Shape"></path>
        </g>
    </g>
</svg>