<svg height='100px' width='100px'  fill="#000000" xmlns="http://www.w3.org/2000/svg" xmlns:xlink="http://www.w3.org/1999/xlink" version="1.1" x="0px" y="0px" viewBox="0 0 512 512" enable-background="new 0 0 512 512" xml:space="preserve"><path d="M256,1C115.167,1,1,115.167,1,256s114.167,255,255,255s255-114.167,255-255S396.833,1,256,1z M252.498,94.5  c21.075,0,38.12,17.045,38.12,38.12s-17.045,38.12-38.12,38.12s-38.12-17.045-38.12-38.12S231.423,94.5,252.498,94.5z   M312.025,417.5H199.975v-45.388h24.907V239.979h-2.246c-12.487,0-22.661-10.108-22.661-22.661  c0-12.487,10.108-22.661,22.661-22.661h2.246h61.31h0.991h0.066v177.455h24.775V417.5z"></path></svg>