<svg height='100px' width='100px'  fill="#000000" xmlns="http://www.w3.org/2000/svg" xmlns:xlink="http://www.w3.org/1999/xlink" version="1.1" x="0px" y="0px" viewBox="0 0 50 50" enable-background="new 0 0 50 50" xml:space="preserve"><circle cx="10.875" cy="11.75" r="4.25"></circle><path d="M21.375,14h19.75c1.243,0,2.25-1.007,2.25-2.25s-1.007-2.25-2.25-2.25h-19.75c-1.243,0-2.25,1.007-2.25,2.25  S20.132,14,21.375,14z"></path><circle cx="10.875" cy="25" r="4.25"></circle><path d="M41.125,22.75h-19.75c-1.243,0-2.25,1.007-2.25,2.25s1.007,2.25,2.25,2.25h19.75c1.243,0,2.25-1.007,2.25-2.25  S42.368,22.75,41.125,22.75z"></path><circle cx="10.875" cy="38.25" r="4.25"></circle><path d="M41.125,36h-19.75c-1.243,0-2.25,1.007-2.25,2.25s1.007,2.25,2.25,2.25h19.75c1.243,0,2.25-1.007,2.25-2.25  S42.368,36,41.125,36z"></path></svg>