<?xml version="1.0" encoding="UTF-8"?>
<svg width="100pt" height="100pt" version="1.1" viewBox="0 0 100 100" xmlns="http://www.w3.org/2000/svg">
 <g>
  <path d="m75.801 46.199c1.8984-1.3008 3.1016-3.5 3.1016-5.8984 0-3.8008-2.8984-6.8984-6.6992-7.1992l1.8008 6.6016z"/>
  <path d="m77.398 62l-5.8008-21.602-5.8008-21.699c-0.30078-1.3008-1.3984-2-2.6016-2-0.69922 0-1.5 0.30078-2.1992 0.89844-9.8984 11-23.199 17.301-28.602 19.5l0.10156 0.39844 6.6992 25.102v0.10156c2.5-0.30078 6.6992-0.80078 11.801-0.80078 6.6992 0 14.898 0.80078 22.898 3.3984 0.30078 0.10156 0.60156 0.10156 0.89844 0.10156 1.707 0 3.1055-1.5977 2.6055-3.3984z"/>
  <path d="m44.699 79.301c-4.8984-4.8008-6.8008-10.5-7.5-13.699l-12.102 3.3008c0.69922 3.3984 2.8008 9.5 8.3008 14.398 0.69922 0.69922 1.8008 0.89844 2.6992 0.69922l7.1992-1.8984c1.8047-0.5 2.2031-1.9023 1.4023-2.8008z"/>
  <path d="m16.5 41.801c-7.8008 2.1016-12.602 9.3984-10.699 16.301 1.5 5.6016 7 9.3008 13.199 9.3008 1.3984 0 2.8008-0.19922 4.1992-0.60156l13.602-3.6992h-0.10156l-6.7969-25s0.10156 0 0.19922-0.10156z"/>
  <path d="m84.898 38.102c-0.60156 0-1.1016-0.39844-1.3008-1-0.19922-0.69922 0.19922-1.3984 0.89844-1.6016l12.102-3.1992c0.69922-0.19922 1.3984 0.19922 1.6016 0.89844 0.19922 0.69922-0.19922 1.3984-0.89844 1.6016l-12.102 3.1992c-0.097657 0.10156-0.19922 0.10156-0.30078 0.10156z"/>
  <path d="m96 52.301c-0.19922 0-0.39844-0.10156-0.69922-0.19922l-10.801-6.3008c-0.60156-0.39844-0.80078-1.1992-0.5-1.8008 0.39844-0.60156 1.1992-0.80078 1.8008-0.5l10.801 6.3008c0.60156 0.39844 0.80078 1.1992 0.5 1.8008-0.20312 0.5-0.70312 0.69922-1.1016 0.69922z"/>
  <path d="m81.398 31.102c-0.19922 0-0.39844-0.10156-0.60156-0.19922-0.60156-0.39844-0.80078-1.1016-0.5-1.8008l6.1992-10.898c0.39844-0.60156 1.1016-0.80078 1.8008-0.5 0.60156 0.39844 0.80078 1.1016 0.5 1.8008l-6.1992 10.898c-0.29688 0.49609-0.69922 0.69922-1.1992 0.69922z"/>
 </g>
</svg>
