<svg height='100px' width='100px'  fill="#000000" xmlns="http://www.w3.org/2000/svg" xmlns:xlink="http://www.w3.org/1999/xlink" version="1.1" x="0px" y="0px" viewBox="0 0 100 100" enable-background="new 0 0 100 100" xml:space="preserve"><path d="M88.399,13.561L8.332,44.552c-4.497,1.741-4.434,4.414,0.139,5.942l20.142,6.726l7.824,24.413  c0.936,3.08,3.561,3.738,5.834,1.461l10.728-10.747c0.046-0.046,0.088-0.091,0.132-0.136l19.647,14.855  c3.848,2.91,7.79,1.419,8.76-3.312l13.274-64.756C95.782,14.267,92.896,11.821,88.399,13.561z M75.392,30.886L42.075,62.134  l-0.001,0.001l-0.003,0.003c-0.585,0.551-1.067,1.61-1.136,2.411l0,0L40.048,74.81c-0.448,5.105-1.251,3.328-2.232,0.262  l-6.375-19.634l41.76-26.747C79.66,24.666,79.66,26.983,75.392,30.886z"></path></svg>