<svg height='100px' width='100px'  fill="#000000" xmlns:x="http://ns.adobe.com/Extensibility/1.0/" xmlns:i="http://ns.adobe.com/AdobeIllustrator/10.0/" xmlns:graph="http://ns.adobe.com/Graphs/1.0/" xmlns="http://www.w3.org/2000/svg" xmlns:xlink="http://www.w3.org/1999/xlink" version="1.1" x="0px" y="0px" viewBox="0 0 100 100" style="enable-background:new 0 0 100 100;" xml:space="preserve"><g><g i:extraneous="self"><g><path d="M78,17.4l-11.6-14c-1.3-1.6-3.8-1.1-4.4,0.8l-1.5,4.6C46.4,5.4,30.9,9.1,20,20C6.5,33.5,4,53.9,12.5,69.9     c0.7,1.3,2.5,1.6,3.6,0.5l3.8-3.8c0.7-0.7,0.9-1.7,0.5-2.5c-5.8-12.2-3.7-27.3,6.4-37.4c8.3-8.3,20-11.2,30.7-8.8l-1.5,4.6     c-0.6,1.9,1.1,3.8,3.1,3.3l17.6-4.3C78.4,21.1,79.2,18.9,78,17.4z"></path><path d="M80,80c13.5-13.5,16-33.9,7.5-49.9c-0.7-1.3-2.5-1.6-3.6-0.5l-3.8,3.8c-0.7,0.7-0.9,1.7-0.5,2.5     c5.8,12.2,3.7,27.3-6.4,37.4c-8.3,8.3-20,11.2-30.7,8.8l1.5-4.6c0.6-1.9-1.1-3.8-3.1-3.3l-17.6,4.3c-1.8,0.5-2.6,2.7-1.4,4.1     l11.6,14c1.3,1.6,3.8,1.1,4.4-0.8l1.5-4.6C53.6,94.6,69.1,90.9,80,80z"></path></g></g></g></svg>