<svg height='100px' width='100px'  fill="#000000" xmlns="http://www.w3.org/2000/svg" xmlns:xlink="http://www.w3.org/1999/xlink" version="1.1" x="0px" y="0px" viewBox="0 0 1024 1024" style="enable-background:new 0 0 1024 1024;" xml:space="preserve"><g><g><g><path d="M106.5,331.8c-13.5,0-25.5,5.7-35.5,14.5c-9.8,9.1-14,22.5-14.6,35.4c-0.6,12.5,5.9,26.7,14.6,35.4     c9.1,9,22.6,14.6,35.4,14.6c0.4,0,0.7,0,1.1,0c24.7,0.3,49.5,0,74.2,0c50.7,0,101.3,0,152,0c57.9,0,115.8,0,173.7,0     c46.4,0,92.8,0,139.2,0c26.3,0,53.5-1.4,79.6,2c-4.4-0.6-8.9-1.2-13.3-1.8c19.5,2.7,38.4,7.9,56.5,15.5c-3.9-1.6-7.9-3.3-11.9-5     c17.6,7.6,34.2,17.4,49.4,29.1c-3.4-2.6-6.7-5.2-10.1-7.8c14.6,11.4,27.7,24.6,39.2,39.2c-2.6-3.4-5.2-6.7-7.8-10.1     c11.8,15.2,21.5,31.7,29.1,49.4c-1.6-3.9-3.3-7.9-5-11.9c7.6,18.1,12.8,37.1,15.5,56.5c-0.6-4.4-1.2-8.9-1.8-13.3     c2.5,19.5,2.5,39.1,0,58.6c0.6-4.4,1.2-8.9,1.8-13.3c-2.6,19.3-7.7,38.1-15.2,56c1.6-3.9,3.3-7.9,5-11.9     c-7.4,17.5-17,34-28.6,49.1c2.6-3.4,5.2-6.7,7.8-10.1c-11.9,15.3-25.6,29-40.9,40.9c3.4-2.6,6.7-5.2,10.1-7.8     c-15.1,11.5-31.6,21.2-49.1,28.6c3.9-1.6,7.9-3.3,11.9-5c-17.9,7.5-36.7,12.6-56,15.2c4.4-0.6,8.9-1.2,13.3-1.8     c-18.4,2.4-37,1.9-55.5,1.9c-54.5,0-108.9,0-163.3,0c-36.5,0-73,0-109.5,0c-13.6,0-25.6,5.6-35.4,14.6     c-9.8,9.1-14,22.5-14.6,35.4c-0.6,12.5,5.9,26.7,14.6,35.4c9.1,9,22.6,14.6,35.4,14.6c2.6,0,5.1,0,7.7,0c46.1,0,92.2,0,138.3,0     c47.6,0,95.3,0,142.9,0c25.8,0,51.6-2,76.7-8.3c45.6-11.5,88.2-35.9,122-68.5c72-69.5,100.8-178.5,70.3-274.2     c-8.1-25.3-19.5-50.1-34.8-71.8c-8.9-12.8-18.6-25.2-29.4-36.4c-10.5-10.9-22.2-20.3-34.2-29.5c-43.4-33.3-97.8-51.2-152.2-53.2     c-22.3-0.9-44.7-0.2-67-0.2c-48.6,0-97.2,0-145.8,0c-58.5,0-117,0-175.5,0c-49.4,0-98.7,0-148.1,0     C148,331.8,127.2,331.8,106.5,331.8L106.5,331.8z"></path></g></g><g><g><path d="M322.9,235.5c9.6-9.5,14-22.1,14.6-35.2c0.6-13.4-5.9-25.9-14.6-35.4c-8.5-9.2-23.1-14.6-35.4-14.6     c-12.9,0-26.3,5.5-35.4,14.6c-7.5,7.5-15,15-22.5,22.5c-32.5,32.5-64.9,65-97.4,97.5c-20.5,20.5-41.1,41.1-61.6,61.6     c-19.1,19.1-19.1,51.6,0,70.7c7.5,7.5,14.9,14.9,22.4,22.4c32.6,32.6,65.3,65.2,97.9,97.8c20.4,20.4,40.8,40.7,61.2,61.1     c9.6,9.5,22.1,14,35.4,14.6c13.4,0.6,25.9-5.9,35.4-14.6c9.2-8.5,14.6-23.1,14.6-35.4c0-12.9-5.5-26.3-14.6-35.4     c-7.5-7.5-14.9-14.9-22.4-22.4c-32.6-32.6-65.3-65.2-97.9-97.8c-20.4-20.4-40.8-40.7-61.2-61.1c0,23.6,0,47.1,0,70.7     c7.5-7.5,15-15,22.5-22.5c32.5-32.5,64.9-65,97.4-97.5C281.8,276.6,302.4,256,322.9,235.5L322.9,235.5z"></path></g></g></g></svg>