<svg height='100px' width='100px'  fill="#000000" xmlns:x="http://ns.adobe.com/Extensibility/1.0/" xmlns:i="http://ns.adobe.com/AdobeIllustrator/10.0/" xmlns:graph="http://ns.adobe.com/Graphs/1.0/" xmlns="http://www.w3.org/2000/svg" xmlns:xlink="http://www.w3.org/1999/xlink" version="1.1" x="0px" y="0px" viewBox="0 0 100 100" style="enable-background:new 0 0 100 100;" xml:space="preserve"><g><g i:extraneous="self"><path d="M95.7,86.9L77.6,68.8c5.1-6.9,8.2-15.4,8.2-24.7c0-23-18.7-41.6-41.6-41.6c-23,0-41.6,18.7-41.6,41.6    c0,23,18.7,41.6,41.6,41.6c9.2,0,17.8-3.1,24.7-8.2l18.1,18.1c1.2,1.2,2.8,1.8,4.4,1.8s3.2-0.6,4.4-1.8    C98.1,93.3,98.1,89.3,95.7,86.9z M14.9,44.1C14.9,28,28,14.9,44.1,14.9c16.1,0,29.2,13.1,29.2,29.2c0,16.1-13.1,29.2-29.2,29.2    C28,73.4,14.9,60.3,14.9,44.1z"></path></g></g></svg>