<svg height='100px' width='100px'  fill="#000000" xmlns="http://www.w3.org/2000/svg" xmlns:xlink="http://www.w3.org/1999/xlink" version="1.1" x="0px" y="0px" viewBox="0 0 1024 1024" style="enable-background:new 0 0 1024 1024;" xml:space="preserve"><g><rect x="408.8" y="690.8" width="206.3" height="206.4"></rect><g><path d="M615.2,882.2c-23.3,0-46.5,0-69.8,0c-37,0-74.1,0-111.1,0c-8.5,0-17,0-25.4,0c5,5,10,10,15,15    c0-23.3,0-46.5,0-69.8c0-37.1,0-74.1,0-111.2c0-8.5,0-17,0-25.4c-5,5-10,10-15,15c23.3,0,46.5,0,69.8,0c37,0,74.1,0,111.1,0    c8.5,0,17,0,25.4,0c-5-5-10-10-15-15c0,23.3,0,46.5,0,69.8c0,37.1,0,74.1,0,111.2c0,8.5,0,17,0,25.4c0,7.8,6.9,15.4,15,15    c8.1-0.4,15-6.6,15-15c0-23.3,0-46.5,0-69.8c0-37.1,0-74.1,0-111.2c0-8.5,0-17,0-25.4c0-8.1-6.9-15-15-15c-23.3,0-46.5,0-69.8,0    c-37,0-74.1,0-111.1,0c-8.5,0-17,0-25.4,0c-8.1,0-15,6.9-15,15c0,23.3,0,46.5,0,69.8c0,37.1,0,74.1,0,111.2c0,8.5,0,17,0,25.4    c0,8.1,6.9,15,15,15c23.3,0,46.5,0,69.8,0c37,0,74.1,0,111.1,0c8.5,0,17,0,25.4,0c7.8,0,15.4-6.9,15-15    C629.8,889.1,623.6,882.2,615.2,882.2z"></path></g></g><g><rect x="78.7" y="690.8" width="206.3" height="206.3"></rect><g><path d="M285,882.2c-23.3,0-46.5,0-69.8,0c-37,0-74.1,0-111.1,0c-8.5,0-17,0-25.4,0c5,5,10,10,15,15    c0-23.3,0-46.5,0-69.8c0-37,0-74.1,0-111.1c0-8.5,0-17,0-25.4c-5,5-10,10-15,15c23.3,0,46.5,0,69.8,0c37,0,74.1,0,111.1,0    c8.5,0,17,0,25.4,0c-5-5-10-10-15-15c0,23.3,0,46.5,0,69.8c0,37,0,74.1,0,111.1c0,8.5,0,17,0,25.4c0,7.8,6.9,15.4,15,15    c8.1-0.4,15-6.6,15-15c0-23.3,0-46.5,0-69.8c0-37,0-74.1,0-111.1c0-8.5,0-17,0-25.4c0-8.1-6.9-15-15-15c-23.3,0-46.5,0-69.8,0    c-37,0-74.1,0-111.1,0c-8.5,0-17,0-25.4,0c-8.1,0-15,6.9-15,15c0,23.3,0,46.5,0,69.8c0,37,0,74.1,0,111.1c0,8.5,0,17,0,25.4    c0,8.1,6.9,15,15,15c23.3,0,46.5,0,69.8,0c37,0,74.1,0,111.1,0c8.5,0,17,0,25.4,0c7.8,0,15.4-6.9,15-15    C299.7,889,293.4,882.2,285,882.2z"></path></g></g><g><rect x="739" y="690.8" width="206.3" height="206.3"></rect><g><path d="M945.3,882.2c-23.3,0-46.5,0-69.8,0c-37,0-74.1,0-111.1,0c-8.5,0-17,0-25.4,0c5,5,10,10,15,15    c0-23.3,0-46.5,0-69.8c0-37,0-74.1,0-111.1c0-8.5,0-17,0-25.4c-5,5-10,10-15,15c23.3,0,46.5,0,69.8,0c37,0,74.1,0,111.1,0    c8.5,0,17,0,25.4,0c-5-5-10-10-15-15c0,23.3,0,46.5,0,69.8c0,37,0,74.1,0,111.1c0,8.5,0,17,0,25.4c0,7.8,6.9,15.4,15,15    c8.1-0.4,15-6.6,15-15c0-23.3,0-46.5,0-69.8c0-37,0-74.1,0-111.1c0-8.5,0-17,0-25.4c0-8.1-6.9-15-15-15c-23.3,0-46.5,0-69.8,0    c-37,0-74.1,0-111.1,0c-8.5,0-17,0-25.4,0c-8.1,0-15,6.9-15,15c0,23.3,0,46.5,0,69.8c0,37,0,74.1,0,111.1c0,8.5,0,17,0,25.4    c0,8.1,6.9,15,15,15c23.3,0,46.5,0,69.8,0c37,0,74.1,0,111.1,0c8.5,0,17,0,25.4,0c7.8,0,15.4-6.9,15-15    C960,889,953.7,882.2,945.3,882.2z"></path></g></g><g><rect x="408.5" y="126.8" width="207" height="206.3"></rect><g><path d="M615.5,318.1c-23.4,0-46.7,0-70.1,0c-37.1,0-74.1,0-111.2,0c-8.6,0-17.1,0-25.7,0c5,5,10,10,15,15    c0-23.3,0-46.5,0-69.8c0-37,0-74.1,0-111.1c0-8.5,0-17,0-25.4c-5,5-10,10-15,15c23.4,0,46.7,0,70.1,0c37.1,0,74.1,0,111.2,0    c8.6,0,17.1,0,25.7,0c-5-5-10-10-15-15c0,23.3,0,46.5,0,69.8c0,37,0,74.1,0,111.1c0,8.5,0,17,0,25.4c0,7.8,6.9,15.4,15,15    c8.1-0.4,15-6.6,15-15c0-23.3,0-46.5,0-69.8c0-37,0-74.1,0-111.1c0-8.5,0-17,0-25.4c0-8.1-6.9-15-15-15c-23.4,0-46.7,0-70.1,0    c-37.1,0-74.1,0-111.2,0c-8.6,0-17.1,0-25.7,0c-8.1,0-15,6.9-15,15c0,23.3,0,46.5,0,69.8c0,37,0,74.1,0,111.1c0,8.5,0,17,0,25.4    c0,8.1,6.9,15,15,15c23.4,0,46.7,0,70.1,0c37.1,0,74.1,0,111.2,0c8.6,0,17.1,0,25.7,0c7.8,0,15.4-6.9,15-15    C630.1,325,623.9,318.1,615.5,318.1z"></path></g></g><g><g><path d="M542,690.8c0-11.9,0-23.8,0-35.7c0-28.4,0-56.8,0-85.2c0-34.5,0-69,0-103.5c0-29.7,0-59.4,0-89.1    c0-14.5,0.3-29.1,0-43.6c0-0.2,0-0.4,0-0.6c0-15.7-13.8-30.7-30-30c-16.3,0.7-30,13.2-30,30c0,11.9,0,23.8,0,35.7    c0,28.4,0,56.8,0,85.2c0,34.5,0,69,0,103.5c0,29.7,0,59.4,0,89.1c0,14.5-0.3,29.1,0,43.6c0,0.2,0,0.4,0,0.6    c0,15.7,13.8,30.7,30,30C528.3,720.1,542,707.6,542,690.8L542,690.8z"></path></g></g><g><g><path d="M211.8,690.8c0-20.2,0-40.3,0-60.5c0-32.1,0-64.2,0-96.3c0-7.3,0-14.7,0-22c-10,10-20,20-30,30    c22,0,44,0,66,0c52.5,0,105,0,157.4,0c63.8,0,127.5,0,191.3,0c54.8,0,109.6,0,164.4,0c26.6,0,53.4,0.6,80,0c0.4,0,0.8,0,1.1,0    c-10-10-20-20-30-30c0,20.2,0,40.3,0,60.5c0,32.1,0,64.2,0,96.3c0,7.3,0,14.7,0,22c0,15.7,13.8,30.7,30,30c16.3-0.7,30-13.2,30-30    c0-20.2,0-40.3,0-60.5c0-32.1,0-64.2,0-96.3c0-7.3,0-14.7,0-22c0-16.2-13.7-30-30-30c-22,0-44,0-66,0c-52.5,0-105,0-157.4,0    c-63.8,0-127.5,0-191.3,0c-54.8,0-109.6,0-164.4,0c-26.6,0-53.3-0.4-80,0c-0.4,0-0.8,0-1.1,0c-16.2,0-30,13.7-30,30    c0,20.2,0,40.3,0,60.5c0,32.1,0,64.2,0,96.3c0,7.3,0,14.7,0,22c0,15.7,13.8,30.7,30,30C198.1,720.1,211.8,707.6,211.8,690.8    L211.8,690.8z"></path></g></g></svg>