<svg height='100px' width='100px'  fill="#000000" xmlns="http://www.w3.org/2000/svg" xmlns:xlink="http://www.w3.org/1999/xlink" version="1.1" x="0px" y="0px" viewBox="0 0 100 100" enable-background="new 0 0 100 100" xml:space="preserve"><path d="M50,2.75C23.903,2.75,2.75,23.905,2.75,50S23.903,97.25,50,97.25c26.096,0,47.25-21.155,47.25-47.25S76.096,2.75,50,2.75z   M68.385,63.2c1.432,1.432,1.432,3.753,0,5.185c-1.432,1.432-3.754,1.432-5.186,0L50,55.186L36.801,68.385  c-1.432,1.432-3.754,1.432-5.186,0c-1.432-1.432-1.432-3.753,0.001-5.185L44.815,50l-13.2-13.2c-1.432-1.432-1.432-3.753,0-5.186  c1.432-1.431,3.754-1.432,5.186,0L50,44.815l13.2-13.2c1.432-1.432,3.754-1.432,5.186,0c1.432,1.432,1.431,3.754,0,5.186L55.186,50  L68.385,63.2z"></path></svg>